<svg width="344" height="19" viewBox="0 0 344 19" fill="none" xmlns="http://www.w3.org/2000/svg">
<path d="M8.375 18H4.74219V3.89062H0.0898438V0.867188H13.0273V3.89062H8.375V18ZM19.2969 8.47266H20.4688C21.6172 8.47266 22.4648 8.28125 23.0117 7.89844C23.5586 7.51562 23.832 6.91406 23.832 6.09375C23.832 5.28125 23.5508 4.70312 22.9883 4.35938C22.4336 4.01562 21.5703 3.84375 20.3984 3.84375H19.2969V8.47266ZM19.2969 11.4258V18H15.6641V0.867188H20.6562C22.9844 0.867188 24.707 1.29297 25.8242 2.14453C26.9414 2.98828 27.5 4.27344 27.5 6C27.5 7.00781 27.2227 7.90625 26.668 8.69531C26.1133 9.47656 25.3281 10.0898 24.3125 10.5352C26.8906 14.3867 28.5703 16.875 29.3516 18H25.3203L21.2305 11.4258H19.2969ZM36.8398 7.92188L40.4141 0.867188H44.3281L38.6445 11.332V18H35.0352V11.4492L29.3516 0.867188H33.2891L36.8398 7.92188ZM58.0508 7.92188L61.625 0.867188H65.5391L59.8555 11.332V18H56.2461V11.4492L50.5625 0.867188H54.5L58.0508 7.92188ZM83.2461 9.41016C83.2461 12.2461 82.543 14.4258 81.1367 15.9492C79.7305 17.4727 77.7148 18.2344 75.0898 18.2344C72.4648 18.2344 70.4492 17.4727 69.043 15.9492C67.6367 14.4258 66.9336 12.2383 66.9336 9.38672C66.9336 6.53516 67.6367 4.35938 69.043 2.85938C70.457 1.35156 72.4805 0.597656 75.1133 0.597656C77.7461 0.597656 79.7578 1.35547 81.1484 2.87109C82.5469 4.38672 83.2461 6.56641 83.2461 9.41016ZM70.7422 9.41016C70.7422 11.3242 71.1055 12.7656 71.832 13.7344C72.5586 14.7031 73.6445 15.1875 75.0898 15.1875C77.9883 15.1875 79.4375 13.2617 79.4375 9.41016C79.4375 5.55078 77.9961 3.62109 75.1133 3.62109C73.668 3.62109 72.5781 4.10938 71.8438 5.08594C71.1094 6.05469 70.7422 7.49609 70.7422 9.41016ZM100.742 0.867188V11.9531C100.742 13.2188 100.457 14.3281 99.8867 15.2812C99.3242 16.2344 98.5078 16.9648 97.4375 17.4727C96.3672 17.9805 95.1016 18.2344 93.6406 18.2344C91.4375 18.2344 89.7266 17.6719 88.5078 16.5469C87.2891 15.4141 86.6797 13.8672 86.6797 11.9062V0.867188H90.3008V11.3555C90.3008 12.6758 90.5664 13.6445 91.0977 14.2617C91.6289 14.8789 92.5078 15.1875 93.7344 15.1875C94.9219 15.1875 95.7812 14.8789 96.3125 14.2617C96.8516 13.6367 97.1211 12.6602 97.1211 11.332V0.867188H100.742ZM108.57 8.47266H109.742C110.891 8.47266 111.738 8.28125 112.285 7.89844C112.832 7.51562 113.105 6.91406 113.105 6.09375C113.105 5.28125 112.824 4.70312 112.262 4.35938C111.707 4.01562 110.844 3.84375 109.672 3.84375H108.57V8.47266ZM108.57 11.4258V18H104.938V0.867188H109.93C112.258 0.867188 113.98 1.29297 115.098 2.14453C116.215 2.98828 116.773 4.27344 116.773 6C116.773 7.00781 116.496 7.90625 115.941 8.69531C115.387 9.47656 114.602 10.0898 113.586 10.5352C116.164 14.3867 117.844 16.875 118.625 18H114.594L110.504 11.4258H108.57ZM195.781 18H192.148V3.89062H187.496V0.867188H200.434V3.89062H195.781V18ZM206.703 8.47266H207.875C209.023 8.47266 209.871 8.28125 210.418 7.89844C210.965 7.51562 211.238 6.91406 211.238 6.09375C211.238 5.28125 210.957 4.70312 210.395 4.35938C209.84 4.01562 208.977 3.84375 207.805 3.84375H206.703V8.47266ZM206.703 11.4258V18H203.07V0.867188H208.062C210.391 0.867188 212.113 1.29297 213.23 2.14453C214.348 2.98828 214.906 4.27344 214.906 6C214.906 7.00781 214.629 7.90625 214.074 8.69531C213.52 9.47656 212.734 10.0898 211.719 10.5352C214.297 14.3867 215.977 16.875 216.758 18H212.727L208.637 11.4258H206.703ZM218.914 18V0.867188H222.547V18H218.914ZM237.348 18L236.105 13.9219H229.859L228.617 18H224.703L230.75 0.796875H235.191L241.262 18H237.348ZM235.238 10.875C234.09 7.17969 233.441 5.08984 233.293 4.60547C233.152 4.12109 233.051 3.73828 232.988 3.45703C232.73 4.45703 231.992 6.92969 230.773 10.875H235.238ZM243.43 18V0.867188H247.062V15H254.012V18H243.43ZM269.844 18H266.211V3.89062H261.559V0.867188H274.496V3.89062H269.844V18ZM292.684 9.41016C292.684 12.2461 291.98 14.4258 290.574 15.9492C289.168 17.4727 287.152 18.2344 284.527 18.2344C281.902 18.2344 279.887 17.4727 278.48 15.9492C277.074 14.4258 276.371 12.2383 276.371 9.38672C276.371 6.53516 277.074 4.35938 278.48 2.85938C279.895 1.35156 281.918 0.597656 284.551 0.597656C287.184 0.597656 289.195 1.35547 290.586 2.87109C291.984 4.38672 292.684 6.56641 292.684 9.41016ZM280.18 9.41016C280.18 11.3242 280.543 12.7656 281.27 13.7344C281.996 14.7031 283.082 15.1875 284.527 15.1875C287.426 15.1875 288.875 13.2617 288.875 9.41016C288.875 5.55078 287.434 3.62109 284.551 3.62109C283.105 3.62109 282.016 4.10938 281.281 5.08594C280.547 6.05469 280.18 7.49609 280.18 9.41016ZM310.449 9.26953C310.449 12.0898 309.645 14.25 308.035 15.75C306.434 17.25 304.117 18 301.086 18H296.234V0.867188H301.613C304.41 0.867188 306.582 1.60547 308.129 3.08203C309.676 4.55859 310.449 6.62109 310.449 9.26953ZM306.676 9.36328C306.676 5.68359 305.051 3.84375 301.801 3.84375H299.867V15H301.426C304.926 15 306.676 13.1211 306.676 9.36328ZM324.488 18L323.246 13.9219H317L315.758 18H311.844L317.891 0.796875H322.332L328.402 18H324.488ZM322.379 10.875C321.23 7.17969 320.582 5.08984 320.434 4.60547C320.293 4.12109 320.191 3.73828 320.129 3.45703C319.871 4.45703 319.133 6.92969 317.914 10.875H322.379ZM335.902 7.92188L339.477 0.867188H343.391L337.707 11.332V18H334.098V11.4492L328.414 0.867188H332.352L335.902 7.92188Z" fill="#333333"/>
<path d="M130.59 18H127.016V0.867188H136.836V3.84375H130.59V8.26172H136.402V11.2266H130.59V18ZM143.82 8.47266H144.992C146.141 8.47266 146.988 8.28125 147.535 7.89844C148.082 7.51562 148.355 6.91406 148.355 6.09375C148.355 5.28125 148.074 4.70312 147.512 4.35938C146.957 4.01562 146.094 3.84375 144.922 3.84375H143.82V8.47266ZM143.82 11.4258V18H140.188V0.867188H145.18C147.508 0.867188 149.23 1.29297 150.348 2.14453C151.465 2.98828 152.023 4.27344 152.023 6C152.023 7.00781 151.746 7.90625 151.191 8.69531C150.637 9.47656 149.852 10.0898 148.836 10.5352C151.414 14.3867 153.094 16.875 153.875 18H149.844L145.754 11.4258H143.82ZM165.898 18H156.031V0.867188H165.898V3.84375H159.664V7.60547H165.465V10.582H159.664V15H165.898V18ZM179.352 18H169.484V0.867188H179.352V3.84375H173.117V7.60547H178.918V10.582H173.117V15H179.352V18Z" fill="#EC7979"/>
</svg>
